<svg xmlns="http://www.w3.org/2000/svg" viewBox="0 0 800 400" role="img" aria-labelledby="title desc">
  <title id="title">Dos Cabezas WineWorks</title>
  <desc id="desc">A long-running Arizona wineworks with two mountain peaks and cellar barrels.</desc>
  <rect width="800" height="400" fill="#f5f1e8"/>
  <path d="M0 173l126-72 111 74 92-56 116 75 113-85 242 115v176H0z" fill="#d4a574"/>
  <path d="M0 245h800v155H0z" fill="#e6b17a"/>
  <path d="M70 194l139-87 129 90" fill="none" stroke="#722f37" stroke-width="13" stroke-linecap="round" stroke-linejoin="round" opacity=".7"/>
  <path d="M425 194l129-90 166 102" fill="none" stroke="#722f37" stroke-width="13" stroke-linecap="round" stroke-linejoin="round" opacity=".7"/>
  <rect x="137" y="222" width="285" height="94" rx="8" fill="#2c2c2c"/>
  <path d="M128 222h304l-41-54H170z" fill="#b85450"/>
  <g transform="translate(484 230)">
    <ellipse cx="42" cy="44" rx="42" ry="50" fill="#722f37"/>
    <ellipse cx="42" cy="44" rx="30" ry="39" fill="#b87333"/>
    <path d="M12 30h60M10 58h64" stroke="#2c2c2c" stroke-width="5" opacity=".6"/>
  </g>
  <g transform="translate(594 238)">
    <ellipse cx="42" cy="44" rx="42" ry="50" fill="#722f37"/>
    <ellipse cx="42" cy="44" rx="30" ry="39" fill="#b87333"/>
    <path d="M12 30h60M10 58h64" stroke="#2c2c2c" stroke-width="5" opacity=".6"/>
  </g>
  <text x="48" y="64" font-family="Inter, Arial, sans-serif" font-size="34" font-weight="700" fill="#722f37">Dos Cabezas WineWorks</text>
  <text x="50" y="103" font-family="Inter, Arial, sans-serif" font-size="20" fill="#2c2c2c">Arizona wine cornerstone · cellar craft</text>
</svg>
