<svg xmlns="http://www.w3.org/2000/svg" viewBox="0 0 800 400" role="img" aria-labelledby="title desc">
  <title id="title">Rune Wines off-grid winery</title>
  <desc id="desc">An off-grid desert winery with solar panels, vines, and open sky.</desc>
  <rect width="800" height="400" fill="#f5f1e8"/>
  <circle cx="654" cy="74" r="44" fill="#e6b17a"/>
  <path d="M0 173c126-37 224-42 325-17 147 36 244 4 475-74v318H0z" fill="#d4a574"/>
  <path d="M0 250h800v150H0z" fill="#87a96b" opacity=".35"/>
  <g transform="translate(103 167)">
    <rect x="0" y="48" width="252" height="98" rx="7" fill="#2c2c2c"/>
    <path d="M-13 48h278L223 0H32z" fill="#722f37"/>
    <rect x="31" y="75" width="61" height="71" fill="#f5f1e8" opacity=".78"/>
    <rect x="118" y="76" width="96" height="34" fill="#f5f1e8" opacity=".58"/>
  </g>
  <g transform="translate(441 185) skewX(-10)">
    <rect x="0" y="0" width="240" height="80" fill="#2c2c2c"/>
    <g stroke="#87a96b" stroke-width="3" opacity=".9">
      <path d="M0 20h240M0 40h240M0 60h240M60 0v80M120 0v80M180 0v80"/>
    </g>
  </g>
  <g stroke="#722f37" stroke-width="4" opacity=".38">
    <path d="M59 377c127-70 236-107 365-137"/>
    <path d="M220 400c95-58 206-99 337-127"/>
    <path d="M399 400c74-42 161-72 275-92"/>
  </g>
  <text x="48" y="64" font-family="Inter, Arial, sans-serif" font-size="34" font-weight="700" fill="#722f37">Rune Wines</text>
  <text x="50" y="103" font-family="Inter, Arial, sans-serif" font-size="20" fill="#2c2c2c">off-grid · solar-powered · open desert views</text>
</svg>
