<svg xmlns="http://www.w3.org/2000/svg" viewBox="0 0 400 200" role="img" aria-labelledby="title desc">
  <title id="title">Game meats</title>
  <desc id="desc">A rustic plate of sliced game meat with herbs.</desc>
  <rect width="400" height="200" fill="#f5f1e8"/>
  <rect x="0" y="130" width="400" height="70" fill="#b87333" opacity=".45"/>
  <ellipse cx="206" cy="111" rx="136" ry="55" fill="#fffaf0"/>
  <ellipse cx="176" cy="112" rx="58" ry="28" fill="#722f37" transform="rotate(-12 176 112)"/>
  <ellipse cx="228" cy="101" rx="58" ry="28" fill="#b85450" transform="rotate(7 228 101)"/>
  <ellipse cx="265" cy="126" rx="48" ry="22" fill="#722f37" transform="rotate(-2 265 126)"/>
  <path d="M119 80c34 17 78 20 121 8M128 138c55 11 112 8 170-9" stroke="#2c2c2c" stroke-width="4" opacity=".4" fill="none"/>
  <path d="M89 75c24 5 36 21 45 43" stroke="#87a96b" stroke-width="6" stroke-linecap="round"/>
  <path d="M94 76l-13-15M110 88l-11-18M126 108l-13-18" stroke="#87a96b" stroke-width="4" stroke-linecap="round"/>
  <text x="30" y="38" font-family="Inter, Arial, sans-serif" font-size="18" font-weight="700" fill="#722f37">Game Meats</text>
</svg>
